<svg width="1020" height="1020" viewBox="0 0 1020 1020" fill="none" xmlns="http://www.w3.org/2000/svg">
<path d="M864.732 162.339L861.197 158.803L864.732 162.339C867.983 159.088 867.997 153.792 864.699 150.538C782.384 69.3126 674.653 18.7742 559.499 7.43249C443.227 -4.01925 326.581 25.1989 229.437 90.1085C132.293 155.018 60.6605 251.603 26.7452 363.407C-7.16999 475.21 -1.26962 595.314 43.441 703.255C88.1516 811.196 168.906 900.294 271.945 955.37C374.984 1010.44 493.931 1028.09 608.521 1005.3C723.11 982.503 826.251 920.682 900.37 830.368C973.869 740.81 1014.32 628.728 1014.99 512.933C1015.01 508.909 1012.27 505.415 1008.4 504.445C1002.88 503.064 997.596 507.245 997.542 512.856C996.468 623.554 957.604 730.621 887.315 816.268C816.027 903.132 716.827 962.59 606.615 984.513C496.404 1006.43 382.001 989.465 282.898 936.494C183.796 883.523 106.127 797.828 63.1247 694.012C20.1223 590.195 14.4474 474.68 47.0669 367.148C79.6864 259.616 148.582 166.721 242.015 104.292C335.448 41.8621 447.637 13.7603 559.466 24.7745C670.201 35.6808 773.798 84.2726 852.963 162.369C856.211 165.573 861.469 165.602 864.732 162.339Z" fill="#272727" stroke="#272727" stroke-width="10"/>
</svg>
